# xmcd
#
# Track frame offsets:
#	150
#	11769
#	26350
#	38088
#	50603
#	61127
#	71591
#	80271
#	100019
#	112121
#	127397
#	140937
#	151399
#	165270
#	178032
#	187981
#
# Disc length: 2865
#
# Revision: 2
# Processed by: cddbd v1.5.1PL0 Copyright (c) Steve Scherf et al.
# Submitted via: dBpowerAMP V4.0
# Normalized: r0:TSWAP
#
DISCID=d70b2f10
DTITLE=Various Artist - Country Man Volume 2
DYEAR=1999
DGENRE=Country
TTITLE0=Willie Nelson - I'll Stay Around
TTITLE1=Merle Haggard - Fulsom Prison Blues
TTITLE2=Woody Guthrie - Hard, Ain't It Hard
TTITLE3=Don Williams - You'ra My Best Friend
TTITLE4=Waylon Jennings - Burning Memories
TTITLE5=Willie Nelson - Blame It On The Times
TTITLE6=Johnny Cash - I Forgot To Remember To Forgot
TTITLE7=Merle Haggard - The Bottle Let Me Down
TTITLE8=Johnny Cash - I Walk The Line
TTITLE9=Kenny Rogers - Tulsa Turnaround
TTITLE10=Willie Nelson - Everything But You
TTITLE11=Boxcar Willie - Wabash Cannonball
TTITLE12=Woody Guthrie - Pretty Boy Floyd
TTITLE13=Freddy Fender - Mean Woman Blues
TTITLE14=Jim Reeves - Just Call Me Lonesome
TTITLE15=Jerry Lee Lewis - Me And Bobby McGee
EXTD=
EXTT0=
EXTT1=
EXTT2=
EXTT3=
EXTT4=
EXTT5=
EXTT6=
EXTT7=
EXTT8=
EXTT9=
EXTT10=
EXTT11=
EXTT12=
EXTT13=
EXTT14=
EXTT15=
PLAYORDER=
